<mxfile host="65bd71144e">
    <diagram id="2uYnWYRGRRtl2LEQhL0n" name="Page-1">
        <mxGraphModel dx="1152" dy="790" grid="1" gridSize="10" guides="1" tooltips="1" connect="1" arrows="1" fold="1" page="1" pageScale="1" pageWidth="827" pageHeight="1169" math="0" shadow="0">
            <root>
                <mxCell id="0"/>
                <mxCell id="1" parent="0"/>
                <mxCell id="4" value="" style="edgeStyle=none;html=1;fontSize=28;" parent="1" source="2" target="3" edge="1">
                    <mxGeometry relative="1" as="geometry"/>
                </mxCell>
                <mxCell id="2" value="inicio" style="ellipse;whiteSpace=wrap;html=1;fontSize=28;fillColor=#e51400;fontColor=#ffffff;strokeColor=#B20000;" parent="1" vertex="1">
                    <mxGeometry x="354" y="20" width="120" height="80" as="geometry"/>
                </mxCell>
                <mxCell id="8" value="" style="edgeStyle=none;html=1;fontSize=28;" parent="1" source="3" target="7" edge="1">
                    <mxGeometry relative="1" as="geometry"/>
                </mxCell>
                <mxCell id="3" value="m" style="shape=parallelogram;perimeter=parallelogramPerimeter;whiteSpace=wrap;html=1;fixedSize=1;fontSize=28;fillColor=#e3c800;fontColor=#000000;strokeColor=#B09500;" parent="1" vertex="1">
                    <mxGeometry x="354" y="190" width="120" height="60" as="geometry"/>
                </mxCell>
                <mxCell id="9" style="edgeStyle=none;html=1;exitX=1;exitY=0.5;exitDx=0;exitDy=0;fontSize=28;entryX=0.5;entryY=0;entryDx=0;entryDy=0;" parent="1" source="7" edge="1" target="12">
                    <mxGeometry relative="1" as="geometry">
                        <mxPoint x="650" y="480" as="targetPoint"/>
                        <Array as="points">
                            <mxPoint x="650" y="365"/>
                        </Array>
                    </mxGeometry>
                </mxCell>
                <mxCell id="7" value="m&amp;gt;3" style="rhombus;whiteSpace=wrap;html=1;fontSize=28;fillColor=#647687;fontColor=#ffffff;strokeColor=#314354;" parent="1" vertex="1">
                    <mxGeometry x="360" y="310" width="110" height="110" as="geometry"/>
                </mxCell>
                <mxCell id="10" style="edgeStyle=none;html=1;fontSize=28;entryX=0.5;entryY=0;entryDx=0;entryDy=0;" edge="1" parent="1" source="7" target="11">
                    <mxGeometry relative="1" as="geometry">
                        <mxPoint x="200" y="475" as="targetPoint"/>
                        <Array as="points">
                            <mxPoint x="200" y="365"/>
                        </Array>
                        <mxPoint x="50" y="380" as="sourcePoint"/>
                    </mxGeometry>
                </mxCell>
                <mxCell id="11" value="v=300" style="rounded=0;whiteSpace=wrap;html=1;fontSize=28;fillColor=#fa6800;fontColor=#000000;strokeColor=#C73500;" vertex="1" parent="1">
                    <mxGeometry x="140" y="480" width="120" height="60" as="geometry"/>
                </mxCell>
                <mxCell id="12" value="v=(300)+((m-3)*50)" style="rounded=0;whiteSpace=wrap;html=1;fontSize=28;fillColor=#fa6800;fontColor=#000000;strokeColor=#C73500;" vertex="1" parent="1">
                    <mxGeometry x="500" y="480" width="300" height="60" as="geometry"/>
                </mxCell>
                <mxCell id="17" value="" style="edgeStyle=none;html=1;fontSize=28;" edge="1" parent="1" source="13" target="16">
                    <mxGeometry relative="1" as="geometry"/>
                </mxCell>
                <mxCell id="13" value="v" style="shape=parallelogram;perimeter=parallelogramPerimeter;whiteSpace=wrap;html=1;fixedSize=1;fontSize=28;fillColor=#60a917;strokeColor=#2D7600;fontColor=#ffffff;" vertex="1" parent="1">
                    <mxGeometry x="360" y="720" width="120" height="60" as="geometry"/>
                </mxCell>
                <mxCell id="14" style="edgeStyle=none;html=1;fontSize=28;exitX=0.5;exitY=1;exitDx=0;exitDy=0;" edge="1" parent="1" source="11">
                    <mxGeometry relative="1" as="geometry">
                        <mxPoint x="420" y="640" as="targetPoint"/>
                        <Array as="points">
                            <mxPoint x="200" y="590"/>
                            <mxPoint x="200" y="640"/>
                        </Array>
                        <mxPoint x="280" y="585" as="sourcePoint"/>
                    </mxGeometry>
                </mxCell>
                <mxCell id="15" style="edgeStyle=none;html=1;fontSize=28;exitX=0.5;exitY=1;exitDx=0;exitDy=0;entryX=0.5;entryY=0;entryDx=0;entryDy=0;" edge="1" parent="1" target="13">
                    <mxGeometry relative="1" as="geometry">
                        <mxPoint x="390" y="640" as="targetPoint"/>
                        <Array as="points">
                            <mxPoint x="650" y="590"/>
                            <mxPoint x="650" y="640"/>
                            <mxPoint x="420" y="640"/>
                        </Array>
                        <mxPoint x="650" y="540" as="sourcePoint"/>
                    </mxGeometry>
                </mxCell>
                <mxCell id="16" value="fin" style="ellipse;whiteSpace=wrap;html=1;fontSize=28;fillColor=#1ba1e2;fontColor=#ffffff;strokeColor=#006EAF;" vertex="1" parent="1">
                    <mxGeometry x="360" y="860" width="120" height="60" as="geometry"/>
                </mxCell>
                <mxCell id="18" value="V" style="text;html=1;strokeColor=none;fillColor=none;align=center;verticalAlign=middle;whiteSpace=wrap;rounded=0;fontSize=28;" vertex="1" parent="1">
                    <mxGeometry x="530" y="330" width="60" height="30" as="geometry"/>
                </mxCell>
                <mxCell id="19" value="F" style="text;html=1;strokeColor=none;fillColor=none;align=center;verticalAlign=middle;whiteSpace=wrap;rounded=0;fontSize=28;" vertex="1" parent="1">
                    <mxGeometry x="270" y="330" width="60" height="30" as="geometry"/>
                </mxCell>
            </root>
        </mxGraphModel>
    </diagram>
</mxfile>